<svg id="svg" version="1.1" xmlns="http://www.w3.org/2000/svg" xmlns:xlink="http://www.w3.org/1999/xlink" width="400" height="400" viewBox="0, 0, 400,400"><g id="svgg"><path id="path0" d="M232.800 104.020 C 221.496 104.634,208.462 106.382,207.245 107.449 L 206.200 108.364 207.048 109.882 C 207.933 111.465,208.712 112.073,212.834 114.400 C 217.224 116.878,220.563 120.746,227.120 130.946 C 229.343 134.404,230.643 137.647,234.010 148.126 L 237.247 158.200 239.523 160.423 C 241.974 162.816,242.308 162.966,253.081 166.485 L 258.200 168.157 308.372 168.179 L 358.545 168.200 360.980 166.356 C 362.320 165.342,364.683 163.156,366.231 161.498 L 369.046 158.484 368.549 153.742 C 367.747 146.095,367.533 139.073,367.878 131.737 C 368.088 127.256,368.032 121.999,367.715 116.592 C 367.160 107.119,367.670 108.184,362.400 105.497 L 359.000 103.763 299.000 103.724 C 266.000 103.702,236.210 103.835,232.800 104.020 M98.800 146.837 C 95.062 147.296,90.614 148.155,87.600 149.000 C 82.474 150.436,67.652 153.530,61.625 154.422 C 57.154 155.083,55.087 156.777,54.414 160.331 C 51.846 173.882,48.062 183.852,43.403 189.345 L 41.245 191.887 39.424 200.114 L 37.602 208.341 39.436 214.471 C 41.515 221.419,41.884 222.148,46.365 228.132 C 54.820 239.425,56.252 242.905,57.904 256.183 L 58.200 258.566 60.549 259.886 C 62.560 261.017,68.769 263.840,73.600 265.821 C 74.370 266.137,77.520 266.927,80.600 267.577 C 83.680 268.226,87.390 269.036,88.845 269.375 C 91.630 270.025,100.262 270.752,106.000 270.822 C 115.791 270.939,141.016 266.103,143.119 263.704 C 145.425 261.074,146.684 259.058,148.050 255.805 C 149.764 251.721,152.892 248.282,156.721 246.269 C 161.007 244.017,163.044 242.008,163.594 239.494 C 167.722 220.591,168.656 212.483,168.152 199.946 L 167.792 191.000 165.121 185.600 C 161.757 178.796,158.855 174.336,157.347 173.649 C 153.106 171.718,147.815 166.345,145.026 161.138 C 143.025 157.402,143.022 157.400,135.400 154.922 C 125.011 151.543,121.720 150.445,115.600 148.311 C 108.691 145.903,107.355 145.785,98.800 146.837 M265.215 231.910 L 258.230 232.020 255.290 234.271 C 250.086 238.257,248.159 240.757,246.558 245.600 C 245.731 248.100,244.291 251.257,243.002 253.400 C 240.555 257.465,234.787 272.437,230.983 284.600 L 228.731 291.800 226.065 294.325 C 221.285 298.854,213.999 303.255,209.768 304.168 C 209.061 304.320,207.727 305.256,206.635 306.364 L 204.734 308.295 205.972 310.447 C 208.268 314.439,207.902 314.260,218.200 316.403 C 226.619 318.155,237.429 318.491,277.113 318.233 L 308.827 318.026 311.113 316.247 C 312.371 315.269,314.721 313.128,316.335 311.490 L 319.270 308.511 318.619 302.155 C 317.881 294.945,317.846 293.722,317.846 275.000 C 317.846 256.278,317.881 255.055,318.619 247.845 L 319.270 241.489 316.335 238.510 C 314.721 236.872,312.368 234.728,311.106 233.747 L 308.812 231.962 290.506 231.881 C 280.438 231.837,269.057 231.849,265.215 231.910 " stroke="none" fill="#e2f3ea" fill-rule="evenodd"></path><path id="path1" d="M228.800 99.618 C 209.657 100.516,206.402 101.251,202.008 105.668 C 199.651 108.038,199.616 108.333,201.232 112.216 C 203.272 117.115,205.334 119.872,211.391 125.800 C 219.033 133.278,222.343 138.276,223.999 144.835 C 228.970 164.528,233.732 169.793,250.650 174.296 L 257.800 176.200 308.200 176.273 L 358.600 176.347 361.484 174.927 C 367.412 172.008,373.648 166.009,376.098 160.870 L 377.304 158.340 376.503 149.270 C 375.863 142.012,375.761 138.761,375.992 133.000 C 376.152 129.040,376.138 121.840,375.961 117.000 L 375.640 108.200 373.570 106.323 C 371.055 104.044,367.131 101.932,362.506 100.368 L 359.050 99.200 297.025 99.264 C 262.911 99.299,232.210 99.458,228.800 99.618 M361.200 101.029 C 367.357 103.073,374.000 107.141,374.000 108.868 C 374.000 109.308,374.189 113.118,374.420 117.334 C 374.696 122.378,374.713 127.804,374.469 133.200 C 374.128 140.725,374.176 142.058,375.049 149.396 C 376.230 159.325,376.291 158.241,374.386 161.079 C 371.308 165.663,366.394 170.180,361.248 173.157 L 358.600 174.689 308.800 174.635 L 259.000 174.580 255.403 173.671 C 240.352 169.867,238.139 168.726,232.594 161.910 C 229.925 158.629,229.662 157.979,225.938 145.454 C 223.529 137.352,220.000 131.934,211.823 123.782 C 205.726 117.705,204.460 115.966,201.844 110.077 L 201.078 108.354 202.839 106.541 C 207.134 102.119,208.554 101.785,227.200 100.808 C 231.710 100.572,236.390 100.318,237.600 100.244 C 238.810 100.170,266.530 100.123,299.200 100.138 L 358.600 100.166 361.200 101.029 M99.535 135.212 C 91.410 136.443,90.947 136.607,86.924 139.670 C 83.227 142.486,73.576 146.030,63.200 148.383 C 54.353 150.390,50.822 153.622,47.888 162.400 C 45.536 169.441,42.895 175.027,40.832 177.328 C 37.876 180.626,35.835 183.228,34.283 185.676 C 31.147 190.625,30.867 191.572,29.216 202.862 L 28.417 208.325 29.377 213.262 C 31.016 221.693,31.961 225.184,34.008 230.380 C 36.152 235.820,39.218 241.554,40.309 242.165 C 44.282 244.388,48.571 250.456,51.078 257.400 C 52.228 260.585,55.011 265.477,56.944 267.709 C 59.506 270.669,71.672 274.721,89.000 278.388 C 90.980 278.806,96.123 279.455,100.429 279.829 L 108.258 280.510 116.229 279.018 C 123.643 277.630,128.468 276.599,138.000 274.364 C 144.146 272.923,148.620 268.602,152.661 260.207 C 154.486 256.415,157.062 253.483,159.757 252.130 C 163.064 250.470,166.510 247.832,169.278 244.842 L 171.867 242.046 172.737 237.723 C 176.744 217.806,177.360 209.664,175.987 194.783 C 175.130 185.496,169.265 172.789,162.980 166.600 C 149.496 153.323,145.838 150.407,139.859 148.168 C 131.735 145.124,123.791 141.716,120.400 139.818 C 113.784 136.116,108.981 133.948,107.600 134.041 C 107.270 134.063,103.641 134.590,99.535 135.212 M115.132 139.800 C 118.805 141.670,121.946 143.200,122.111 143.200 C 122.276 143.200,124.974 144.209,128.106 145.443 C 131.238 146.676,135.594 148.324,137.786 149.104 C 143.643 151.188,149.191 154.783,152.383 158.563 C 153.143 159.463,156.052 162.450,158.846 165.200 C 169.380 175.566,173.560 184.591,174.767 199.583 L 175.461 208.200 174.344 217.200 C 172.722 230.264,170.420 241.248,168.908 243.141 C 167.368 245.068,161.744 249.587,159.475 250.720 C 156.784 252.063,153.235 256.103,151.219 260.116 C 149.341 263.855,145.944 268.374,143.400 270.517 C 141.744 271.912,130.696 274.790,120.000 276.612 C 117.910 276.968,114.497 277.610,112.415 278.038 C 102.338 280.112,75.946 275.039,60.760 268.109 C 57.116 266.446,54.184 262.402,52.166 256.251 C 50.389 250.833,48.163 246.973,44.998 243.819 C 38.847 237.689,34.843 228.988,31.767 215.072 L 30.280 208.343 31.582 200.272 C 33.140 190.619,34.427 187.814,40.425 181.000 C 43.113 177.946,46.253 171.503,48.418 164.600 C 51.805 153.796,53.929 151.729,64.044 149.392 C 76.304 146.560,85.190 143.501,89.600 140.594 C 91.954 139.042,92.616 138.819,96.600 138.226 C 99.020 137.867,102.530 137.327,104.400 137.027 C 106.270 136.727,107.947 136.463,108.126 136.441 C 108.305 136.418,111.458 137.930,115.132 139.800 M262.200 223.985 C 258.594 224.161,257.475 224.373,256.000 225.157 C 244.773 231.129,236.298 241.332,231.876 254.200 C 230.893 257.060,228.621 263.245,226.828 267.944 C 225.035 272.644,222.526 279.934,221.253 284.144 L 218.938 291.800 216.085 294.005 C 214.516 295.217,211.572 297.107,209.543 298.205 C 205.128 300.593,202.076 303.270,200.369 306.254 L 199.111 308.452 199.808 310.326 C 201.595 315.131,206.113 322.165,208.102 323.240 C 209.006 323.728,225.666 325.578,233.085 326.014 C 246.572 326.807,308.228 326.416,310.365 325.524 C 316.215 323.082,323.931 316.028,326.191 311.056 L 327.489 308.200 326.918 302.800 C 326.110 295.146,326.110 254.854,326.918 247.200 L 327.489 241.800 326.191 238.944 C 323.985 234.091,317.042 227.662,310.600 224.507 C 308.967 223.708,275.323 223.345,262.200 223.985 M311.821 227.183 C 317.162 230.429,321.438 234.433,324.727 239.272 C 326.220 241.468,326.261 242.108,325.353 249.200 C 324.318 257.289,324.248 289.945,325.247 299.099 C 326.252 308.304,326.243 308.498,324.727 310.728 C 321.436 315.569,317.177 319.558,311.798 322.836 L 309.000 324.540 275.596 324.693 C 238.733 324.862,228.498 324.507,215.200 322.596 L 208.200 321.590 206.880 320.095 C 205.214 318.208,202.328 313.379,201.187 310.568 L 200.314 308.417 201.319 306.703 C 202.947 303.925,206.265 301.127,210.645 298.839 C 212.870 297.677,215.999 295.704,217.599 294.453 L 220.508 292.180 222.857 284.685 C 224.149 280.562,226.722 273.277,228.575 268.495 C 230.427 263.713,232.606 258.000,233.417 255.800 C 235.308 250.667,239.144 243.130,241.086 240.730 C 241.919 239.701,243.527 237.711,244.660 236.308 C 247.023 233.380,250.961 230.040,255.002 227.534 L 257.800 225.800 263.400 225.600 C 266.480 225.490,278.010 225.422,289.023 225.449 L 309.046 225.498 311.821 227.183 " stroke="none" fill="#7ccca4" fill-rule="evenodd"></path><path id="path2" d="M227.000 95.069 C 208.132 95.703,203.950 96.340,199.800 99.213 C 194.601 102.812,192.962 106.903,194.229 113.117 C 196.312 123.334,199.976 129.146,206.157 132.039 C 209.892 133.786,214.991 139.917,215.399 143.149 C 218.834 170.360,226.802 179.725,249.200 182.872 L 255.800 183.800 307.000 183.848 L 358.200 183.895 362.988 182.717 C 374.020 180.001,378.874 175.774,382.330 165.872 L 383.751 161.800 383.626 135.014 L 383.500 108.228 382.276 105.814 C 379.373 100.092,374.626 97.430,364.048 95.591 C 359.923 94.874,245.736 94.439,227.000 95.069 M362.506 100.368 C 367.131 101.932,371.055 104.044,373.570 106.323 L 375.640 108.200 375.961 117.000 C 376.138 121.840,376.152 129.040,375.992 133.000 C 375.761 138.761,375.863 142.012,376.503 149.270 L 377.304 158.340 376.098 160.870 C 373.648 166.009,367.412 172.008,361.484 174.927 L 358.600 176.347 308.200 176.273 L 257.800 176.200 250.650 174.296 C 242.385 172.096,240.960 171.525,237.410 168.992 C 230.417 164.002,227.520 158.784,223.999 144.835 C 222.343 138.276,219.033 133.278,211.391 125.800 C 205.334 119.872,203.272 117.115,201.232 112.216 C 199.616 108.333,199.651 108.038,202.008 105.668 C 205.780 101.877,207.188 101.342,215.408 100.578 C 227.858 99.420,233.535 99.329,297.025 99.264 L 359.050 99.200 362.506 100.368 M98.000 122.374 C 90.453 123.112,88.968 123.538,82.200 126.907 C 75.608 130.189,71.393 133.788,67.860 139.152 C 66.827 140.718,65.905 142.000,65.810 142.000 C 65.021 142.000,52.768 145.804,51.541 146.430 C 47.835 148.321,45.301 151.777,43.777 157.021 C 42.435 161.639,41.805 162.683,39.722 163.739 C 28.727 169.318,20.766 182.448,19.589 196.945 C 19.363 199.728,19.037 203.461,18.865 205.242 C 18.564 208.358,18.643 209.401,20.024 220.600 C 22.462 240.362,26.321 247.139,38.000 252.171 C 42.823 254.248,43.718 255.431,45.635 262.261 C 48.526 272.555,53.597 278.658,61.067 280.834 C 71.703 283.932,100.096 288.845,108.000 288.955 C 108.990 288.968,114.300 288.032,119.800 286.874 C 125.300 285.716,132.770 284.152,136.400 283.397 C 148.303 280.925,153.189 277.123,157.233 267.184 C 158.830 263.260,163.364 258.657,167.200 257.067 C 172.464 254.884,177.697 249.974,180.291 244.783 C 182.006 241.349,183.103 232.614,184.233 213.381 C 184.795 203.815,183.067 185.310,180.811 176.727 C 177.571 164.401,169.762 154.659,160.015 150.783 C 159.253 150.480,157.363 149.279,155.815 148.113 C 154.267 146.947,151.020 144.986,148.600 143.756 C 144.643 141.744,143.988 141.251,142.099 138.859 C 136.919 132.301,131.017 128.473,120.600 124.911 C 110.500 121.458,109.047 121.295,98.000 122.374 M110.340 134.814 C 112.961 135.810,115.445 137.046,120.400 139.818 C 123.791 141.716,131.735 145.124,139.859 148.168 C 145.838 150.407,149.496 153.323,162.980 166.600 C 169.265 172.789,175.130 185.496,175.987 194.783 C 177.360 209.664,176.744 217.806,172.737 237.723 L 171.867 242.046 169.278 244.842 C 166.510 247.832,163.064 250.470,159.757 252.130 C 157.062 253.483,154.486 256.415,152.661 260.207 C 148.620 268.602,144.146 272.923,138.000 274.364 C 128.468 276.599,123.643 277.630,116.229 279.018 L 108.258 280.510 100.429 279.829 C 96.123 279.455,90.980 278.806,89.000 278.388 C 71.672 274.721,59.506 270.669,56.944 267.709 C 55.011 265.477,52.228 260.585,51.078 257.400 C 48.571 250.456,44.282 244.388,40.309 242.165 C 39.218 241.554,36.152 235.820,34.008 230.380 C 31.961 225.184,31.016 221.693,29.377 213.262 L 28.417 208.325 29.216 202.862 C 30.867 191.572,31.147 190.625,34.283 185.676 C 35.835 183.228,37.876 180.626,40.832 177.328 C 42.895 175.027,45.536 169.441,47.888 162.400 C 50.822 153.622,54.353 150.390,63.200 148.383 C 73.576 146.030,83.227 142.486,86.924 139.670 C 90.947 136.607,91.410 136.443,99.535 135.212 C 108.766 133.813,107.801 133.849,110.340 134.814 M257.000 216.409 C 253.341 217.145,247.618 219.321,245.000 220.971 C 243.460 221.942,240.670 223.640,238.800 224.746 C 232.169 228.666,228.485 232.344,225.275 238.251 C 223.102 242.249,222.281 245.274,220.407 256.177 C 220.182 257.485,219.471 259.921,218.827 261.592 C 217.419 265.244,211.232 286.664,210.587 290.123 C 210.249 291.931,209.510 292.483,205.966 293.578 C 194.160 297.224,190.705 309.048,197.443 322.751 C 202.775 333.595,203.677 333.736,268.400 333.801 L 308.600 333.841 313.200 332.716 C 328.914 328.870,334.947 319.430,334.043 300.099 C 333.829 295.535,333.655 284.240,333.655 275.000 C 333.655 265.760,333.829 254.465,334.043 249.901 C 334.944 230.632,328.823 220.978,313.207 217.040 L 309.082 216.000 283.841 216.044 C 269.958 216.068,257.880 216.232,257.000 216.409 M310.600 224.507 C 317.042 227.662,323.985 234.091,326.191 238.944 L 327.489 241.800 326.918 247.200 C 326.110 254.854,326.110 295.146,326.918 302.800 L 327.489 308.200 326.191 311.056 C 323.931 316.028,316.215 323.082,310.365 325.524 C 308.228 326.416,246.572 326.807,233.085 326.014 C 225.666 325.578,209.006 323.728,208.102 323.240 C 206.113 322.165,201.595 315.131,199.808 310.326 L 199.111 308.452 200.369 306.254 C 202.076 303.270,205.128 300.593,209.543 298.205 C 211.572 297.107,214.516 295.217,216.085 294.005 L 218.938 291.800 221.253 284.144 C 222.526 279.934,225.035 272.644,226.828 267.944 C 228.621 263.245,230.893 257.060,231.876 254.200 C 235.676 243.141,242.416 234.058,251.230 228.116 C 258.039 223.527,255.900 223.782,287.800 223.747 C 308.065 223.725,309.071 223.758,310.600 224.507 " stroke="none" fill="#66c48c" fill-rule="evenodd"></path><path id="path3" d="M237.600 100.244 C 236.390 100.318,231.710 100.572,227.200 100.808 C 208.554 101.785,207.134 102.119,202.839 106.541 L 201.078 108.354 201.844 110.077 C 204.460 115.966,205.726 117.705,211.823 123.782 C 220.000 131.934,223.529 137.352,225.938 145.454 C 229.662 157.979,229.925 158.629,232.594 161.910 C 238.139 168.726,240.352 169.867,255.403 173.671 L 259.000 174.580 308.800 174.635 L 358.600 174.689 361.248 173.157 C 366.394 170.180,371.308 165.663,374.386 161.079 C 376.291 158.241,376.230 159.325,375.049 149.396 C 374.176 142.058,374.128 140.725,374.469 133.200 C 374.713 127.804,374.696 122.378,374.420 117.334 C 374.189 113.118,374.000 109.308,374.000 108.868 C 374.000 107.141,367.357 103.073,361.200 101.029 L 358.600 100.166 299.200 100.138 C 266.530 100.123,238.810 100.170,237.600 100.244 M362.400 105.497 C 367.670 108.184,367.160 107.119,367.715 116.592 C 368.032 121.999,368.088 127.256,367.878 131.737 C 367.533 139.073,367.747 146.095,368.549 153.742 L 369.046 158.484 366.231 161.498 C 364.683 163.156,362.320 165.342,360.980 166.356 L 358.545 168.200 308.372 168.179 L 258.200 168.157 253.081 166.485 C 242.308 162.966,241.974 162.816,239.523 160.423 L 237.247 158.200 234.010 148.126 C 230.643 137.647,229.343 134.404,227.120 130.946 C 220.563 120.746,217.224 116.878,212.834 114.400 C 208.712 112.073,207.933 111.465,207.048 109.882 L 206.200 108.364 207.245 107.449 C 208.168 106.640,209.352 106.407,217.445 105.445 C 231.662 103.755,235.149 103.681,299.000 103.724 L 359.000 103.763 362.400 105.497 M104.400 137.027 C 102.530 137.327,99.020 137.867,96.600 138.226 C 92.616 138.819,91.954 139.042,89.600 140.594 C 85.190 143.501,76.304 146.560,64.044 149.392 C 53.929 151.729,51.805 153.796,48.418 164.600 C 46.253 171.503,43.113 177.946,40.425 181.000 C 34.427 187.814,33.140 190.619,31.582 200.272 L 30.280 208.343 31.767 215.072 C 34.843 228.988,38.847 237.689,44.998 243.819 C 48.163 246.973,50.389 250.833,52.166 256.251 C 54.184 262.402,57.116 266.446,60.760 268.109 C 75.946 275.039,102.338 280.112,112.415 278.038 C 114.497 277.610,117.910 276.968,120.000 276.612 C 130.696 274.790,141.744 271.912,143.400 270.517 C 145.944 268.374,149.341 263.855,151.219 260.116 C 153.235 256.103,156.784 252.063,159.475 250.720 C 161.744 249.587,167.368 245.068,168.908 243.141 C 170.420 241.248,172.722 230.264,174.344 217.200 L 175.461 208.200 174.767 199.583 C 173.560 184.591,169.380 175.566,158.846 165.200 C 156.052 162.450,153.143 159.463,152.383 158.563 C 149.191 154.783,143.643 151.188,137.786 149.104 C 135.594 148.324,131.238 146.676,128.106 145.443 C 124.974 144.209,122.276 143.200,122.111 143.200 C 121.946 143.200,118.805 141.670,115.132 139.800 C 111.458 137.930,108.305 136.418,108.126 136.441 C 107.947 136.463,106.270 136.727,104.400 137.027 M115.600 148.311 C 121.720 150.445,125.011 151.543,135.400 154.922 C 143.022 157.400,143.025 157.402,145.026 161.138 C 147.815 166.345,153.106 171.718,157.347 173.649 C 158.855 174.336,161.757 178.796,165.121 185.600 L 167.792 191.000 168.152 199.946 C 168.656 212.483,167.722 220.591,163.594 239.494 C 163.044 242.008,161.007 244.017,156.721 246.269 C 152.892 248.282,149.764 251.721,148.050 255.805 C 146.684 259.058,145.425 261.074,143.119 263.704 C 141.016 266.103,115.791 270.939,106.000 270.822 C 100.262 270.752,91.630 270.025,88.845 269.375 C 87.390 269.036,83.680 268.226,80.600 267.577 C 77.520 266.927,74.370 266.137,73.600 265.821 C 68.769 263.840,62.560 261.017,60.549 259.886 L 58.200 258.566 57.904 256.183 C 56.252 242.905,54.820 239.425,46.365 228.132 C 41.884 222.148,41.515 221.419,39.436 214.471 L 37.602 208.341 39.424 200.114 L 41.245 191.887 43.403 189.345 C 48.062 183.852,51.846 173.882,54.414 160.331 C 55.087 156.777,57.154 155.083,61.625 154.422 C 67.652 153.530,82.474 150.436,87.600 149.000 C 99.482 145.670,107.460 145.474,115.600 148.311 M263.400 225.600 L 257.800 225.800 255.002 227.534 C 250.961 230.040,247.023 233.380,244.660 236.308 C 243.527 237.711,241.919 239.701,241.086 240.730 C 239.144 243.130,235.308 250.667,233.417 255.800 C 232.606 258.000,230.427 263.713,228.575 268.495 C 226.722 273.277,224.149 280.562,222.857 284.685 L 220.508 292.180 217.599 294.453 C 215.999 295.704,212.870 297.677,210.645 298.839 C 206.265 301.127,202.947 303.925,201.319 306.703 L 200.314 308.417 201.187 310.568 C 202.328 313.379,205.214 318.208,206.880 320.095 L 208.200 321.590 215.200 322.596 C 228.498 324.507,238.733 324.862,275.596 324.693 L 309.000 324.540 311.798 322.836 C 317.177 319.558,321.436 315.569,324.727 310.728 C 326.243 308.498,326.252 308.304,325.247 299.099 C 324.248 289.945,324.318 257.289,325.353 249.200 C 326.261 242.108,326.220 241.468,324.727 239.272 C 321.438 234.433,317.162 230.429,311.821 227.183 L 309.046 225.498 289.023 225.449 C 278.010 225.422,266.480 225.490,263.400 225.600 M311.106 233.747 C 312.368 234.728,314.721 236.872,316.335 238.510 L 319.270 241.489 318.619 247.845 C 317.881 255.055,317.846 256.278,317.846 275.000 C 317.846 293.722,317.881 294.945,318.619 302.155 L 319.270 308.511 316.335 311.490 C 314.721 313.128,312.371 315.269,311.113 316.247 L 308.827 318.026 277.113 318.233 C 237.429 318.491,226.619 318.155,218.200 316.403 C 207.902 314.260,208.268 314.439,205.972 310.447 L 204.734 308.295 206.635 306.364 C 207.727 305.256,209.061 304.320,209.768 304.168 C 213.999 303.255,221.285 298.854,226.065 294.325 L 228.731 291.800 230.983 284.600 C 234.787 272.437,240.555 257.465,243.002 253.400 C 244.291 251.257,245.731 248.100,246.558 245.600 C 248.159 240.757,250.086 238.257,255.290 234.271 L 258.230 232.020 265.215 231.910 C 269.057 231.849,280.438 231.837,290.506 231.881 L 308.812 231.962 311.106 233.747 " stroke="none" fill="#84cca4" fill-rule="evenodd"></path><path id="path4" d="M0.000 200.000 L 0.000 400.000 200.000 400.000 L 400.000 400.000 400.000 200.000 L 400.000 0.000 200.000 0.000 L 0.000 0.000 0.000 200.000 M364.048 95.591 C 374.626 97.430,379.373 100.092,382.276 105.814 L 383.500 108.228 383.626 135.014 L 383.751 161.800 382.330 165.872 C 378.874 175.774,374.020 180.001,362.988 182.717 L 358.200 183.895 307.000 183.848 L 255.800 183.800 249.200 182.872 C 226.802 179.725,218.834 170.360,215.399 143.149 C 214.991 139.917,209.892 133.786,206.157 132.039 C 199.976 129.146,196.312 123.334,194.229 113.117 C 192.962 106.903,194.601 102.812,199.800 99.213 C 203.950 96.340,208.132 95.703,227.000 95.069 C 245.736 94.439,359.923 94.874,364.048 95.591 M112.000 122.375 C 125.702 125.430,135.904 131.017,142.099 138.859 C 143.988 141.251,144.643 141.744,148.600 143.756 C 151.020 144.986,154.267 146.947,155.815 148.113 C 157.363 149.279,159.253 150.480,160.015 150.783 C 169.762 154.659,177.571 164.401,180.811 176.727 C 183.067 185.310,184.795 203.815,184.233 213.381 C 183.103 232.614,182.006 241.349,180.291 244.783 C 177.697 249.974,172.464 254.884,167.200 257.067 C 163.364 258.657,158.830 263.260,157.233 267.184 C 153.189 277.123,148.303 280.925,136.400 283.397 C 132.770 284.152,125.300 285.716,119.800 286.874 C 114.300 288.032,108.990 288.968,108.000 288.955 C 100.096 288.845,71.703 283.932,61.067 280.834 C 53.597 278.658,48.526 272.555,45.635 262.261 C 43.718 255.431,42.823 254.248,38.000 252.171 C 26.321 247.139,22.462 240.362,20.024 220.600 C 18.643 209.401,18.564 208.358,18.865 205.242 C 19.037 203.461,19.363 199.728,19.589 196.945 C 20.060 191.144,20.315 190.001,22.289 184.843 C 26.137 174.788,32.047 167.633,39.722 163.739 C 41.805 162.683,42.435 161.639,43.777 157.021 C 45.301 151.777,47.835 148.321,51.541 146.430 C 52.768 145.804,65.021 142.000,65.810 142.000 C 65.905 142.000,66.827 140.718,67.860 139.152 C 71.393 133.788,75.608 130.189,82.200 126.907 C 88.968 123.538,90.453 123.112,98.000 122.374 C 107.151 121.480,107.985 121.480,112.000 122.375 M313.207 217.040 C 328.823 220.978,334.944 230.632,334.043 249.901 C 333.829 254.465,333.655 265.760,333.655 275.000 C 333.655 284.240,333.829 295.535,334.043 300.099 C 334.947 319.430,328.914 328.870,313.200 332.716 L 308.600 333.841 268.400 333.801 C 203.677 333.736,202.775 333.595,197.443 322.751 C 190.705 309.048,194.160 297.224,205.966 293.578 C 209.510 292.483,210.249 291.931,210.587 290.123 C 211.232 286.664,217.419 265.244,218.827 261.592 C 219.471 259.921,220.182 257.485,220.407 256.177 C 222.281 245.274,223.102 242.249,225.275 238.251 C 228.485 232.344,232.169 228.666,238.800 224.746 C 240.670 223.640,243.460 221.942,245.000 220.971 C 247.618 219.321,253.341 217.145,257.000 216.409 C 257.880 216.232,269.958 216.068,283.841 216.044 L 309.082 216.000 313.207 217.040 " stroke="none" fill="#049a42" fill-rule="evenodd"></path></g></svg>